# xmcd
#
# Track frame offsets:
#	183
#	40958
#	60185
#	74468
#
# Disc length: 1200 seconds
#
# Revision: 0
# Processed by: cddbd v1.5.2PL0 Copyright (c) Steve Scherf et al.
# Submitted via: EasyCDDAExtractor 2010.6.0.0
#
DISCID=2f04ae04
DTITLE=Robbie Nevil - Back On Holiday
DYEAR=1988
DGENRE=Pop
TTITLE0=Back On Holiday (Ibiza Mix)
TTITLE1=Back On Holiday (Montego Bay Mix)
TTITLE2=Too Soon
TTITLE3=C'est La Vie
EXTD=
EXTT0=
EXTT1=
EXTT2=
EXTT3=
PLAYORDER=
